HIERARCHY
ROOT Hips
{
	OFFSET 0.000000 0.000000 0.000000
	CHANNELS 6 Xposition Yposition Zposition Zrotation Yrotation Xrotation 
	JOINT LowerBack
	{
		OFFSET 0.000000 0.000000 0.000000
		CHANNELS 3 Zrotation Yrotation Xrotation
		JOINT Spine
		{
			OFFSET 0.028270 2.035590 -0.193380
			CHANNELS 3 Zrotation Yrotation Xrotation
			JOINT Spine1
			{
				OFFSET 0.056720 2.048850 -0.042750
				CHANNELS 3 Zrotation Yrotation Xrotation
				JOINT Neck
				{
					OFFSET 0.000000 0.000000 0.000000
					CHANNELS 3 Zrotation Yrotation Xrotation
					JOINT Neck1
					{
						OFFSET -0.054170 1.746240 0.172020
						CHANNELS 3 Zrotation Yrotation Xrotation
						JOINT Head
						{
							OFFSET 0.104070 1.761360 -0.123970
							CHANNELS 3 Zrotation Yrotation Xrotation
							End Site
							{
								OFFSET 0.000000 0.000000 0.000000
							}
						}
					}
				}
				JOINT LeftShoulder
				{
					OFFSET 0.000000 0.000000 0.000000
					CHANNELS 3 Zrotation Yrotation Xrotation
					JOINT LeftArm
					{
						OFFSET 3.362410 1.200890 -0.311210
						CHANNELS 3 Zrotation Yrotation Xrotation
						JOINT LeftForeArm
						{
							OFFSET 4.983000 -0.000000 -0.000000
							CHANNELS 3 Zrotation Yrotation Xrotation
							JOINT LeftHand
							{
								OFFSET 3.483560 -0.000000 -0.000000
								CHANNELS 3 Zrotation Yrotation Xrotation
								JOINT LeftFingerBase
								{
									OFFSET 0.000000 0.000000 0.000000
									CHANNELS 3 Zrotation Yrotation Xrotation
									JOINT LeftHandIndex1
									{
										OFFSET 0.715260 -0.000000 -0.000000
										CHANNELS 3 Zrotation Yrotation Xrotation
										End Site
										{
											OFFSET 0.000000 0.000000 0.000000
										}
									}
								}
								JOINT LThumb
								{
									OFFSET 0.000000 0.000000 0.000000
									CHANNELS 3 Zrotation Yrotation Xrotation
									End Site
									{
										OFFSET 0.000000 0.000000 0.000000
									}
								}
							}
						}
					}
				}
				JOINT RightShoulder
				{
					OFFSET 0.000000 0.000000 0.000000
					CHANNELS 3 Zrotation Yrotation Xrotation
					JOINT RightArm
					{
						OFFSET -3.136600 1.374050 -0.404650
						CHANNELS 3 Zrotation Yrotation Xrotation
						JOINT RightForeArm
						{
							OFFSET -5.241900 -0.000000 -0.000000
							CHANNELS 3 Zrotation Yrotation Xrotation
							JOINT RightHand
							{
								OFFSET -3.444170 -0.000000 -0.000000
								CHANNELS 3 Zrotation Yrotation Xrotation
								JOINT RightFingerBase
								{
									OFFSET 0.000000 0.000000 0.000000
									CHANNELS 3 Zrotation Yrotation Xrotation
									JOINT RightHandIndex1
									{
										OFFSET -0.622530 -0.000000 -0.000000
										CHANNELS 3 Zrotation Yrotation Xrotation
										End Site
										{
											OFFSET 0.000000 0.000000 0.000000
										}
									}
								}
								JOINT RThumb
								{
									OFFSET 0.000000 0.000000 0.000000
									CHANNELS 3 Zrotation Yrotation Xrotation
									End Site
									{
										OFFSET 0.000000 0.000000 0.000000
									}
								}
							}
						}
					}
				}
			}
		}
	}
}
}
MOTION
Frames: 9
Frame Time: 0.008333
-9.650068 17.008757 -0.852033 3.877177 83.960558 11.956612 -1.787425 2.778223 -5.345050 -1.710462 2.650788 -4.038247 -7.640437 2.657176 0.320437 11.132241 -6.676523 -8.025137 -3.534000 -0.277487 -0.098048 0.000000 0.000000 0.000000 -1.038761 24.204022 0.538357 -58.670887 20.574708 -9.171346 -0.776676 -73.912846 0.005654 12.681449 -3.774485 -0.431631 -0.224427 0.060016 0.000000 0.000000 0.000000 0.000000 0.000000 0.000000 0.000000 16.510154 3.290510 -1.598637 74.335786 15.097134 17.443181 1.218402 66.139923 -0.004042 -2.014088 6.394791 -0.120144 0.048215 -0.380818 -0.000000 0.000000 0.000000 0.000000 0.000000 0.000000 0.000000 
-9.429849 17.000319 -0.842687 11.348319 84.342393 19.057182 -2.390013 2.539003 -5.092226 -1.812666 2.475509 -3.988872 -7.616719 2.479749 0.303329 11.176543 -6.755694 -8.045025 -3.578892 -0.280189 -0.108953 0.000000 0.000000 0.000000 -1.035218 23.947529 0.500262 -58.769427 19.978562 -8.892005 -0.755662 -74.321713 0.004361 12.685854 -3.779248 -0.432919 -0.224278 0.066058 0.000000 0.000000 0.000000 0.000000 0.000000 0.000000 0.000000 16.865475 3.078622 -1.530770 74.452762 14.417097 16.888266 1.274366 64.914222 -0.002895 -1.830853 6.188085 -0.105716 0.046920 -0.368308 -0.000000 0.000000 0.000000 0.000000 0.000000 0.000000 0.000000 
-9.213013 16.991679 -0.834360 18.642068 84.645933 26.012339 -2.877239 2.302813 -4.832711 -1.893105 2.292476 -3.935717 -7.592908 2.296498 0.289539 11.203150 -6.837284 -8.069218 -3.626007 -0.283022 -0.121085 0.000000 0.000000 0.000000 -1.077241 23.679031 0.456428 -58.886055 19.299754 -8.554911 -0.736032 -74.710784 0.003042 12.693424 -3.784440 -0.434504 -0.223964 0.072169 0.000000 0.000000 0.000000 0.000000 0.000000 0.000000 0.000000 17.206859 2.852666 -1.460453 74.530303 13.747028 16.305174 1.330529 63.653071 -0.002068 -1.713409 6.023126 -0.096282 0.046713 -0.355961 -0.000000 0.000000 0.000000 0.000000 0.000000 0.000000 0.000000 
-8.999248 16.983718 -0.827776 25.244295 84.841807 32.318459 -3.241891 2.086718 -4.585967 -1.950647 2.117471 -3.883493 -7.570594 2.122345 0.279472 11.212681 -6.922780 -8.096931 -3.675439 -0.286038 -0.133824 0.000000 0.000000 0.000000 -1.173395 23.408331 0.403151 -59.022332 18.548046 -8.169170 -0.717629 -75.075094 0.001733 12.706928 -3.791695 -0.436386 -0.223516 0.078218 0.000000 0.000000 0.000000 0.000000 0.000000 0.000000 0.000000 17.534737 2.618724 -1.386493 74.560008 13.085137 15.701800 1.387564 62.361350 -0.001532 -1.665068 5.901952 -0.091739 0.047685 -0.343831 -0.000000 0.000000 0.000000 0.000000 0.000000 0.000000 0.000000 
-8.788203 16.977352 -0.823240 30.860885 84.928598 37.691707 -3.503793 1.896179 -4.371381 -1.988628 1.957403 -3.835869 -7.550028 1.963361 0.276117 11.208881 -7.018349 -8.129095 -3.726830 -0.289222 -0.147184 0.000000 0.000000 0.000000 -1.321271 23.145652 0.338846 -59.181860 17.723032 -7.738170 -0.701003 -75.401428 0.000446 12.726696 -3.802232 -0.438864 -0.223003 0.084186 0.000000 0.000000 0.000000 0.000000 0.000000 0.000000 0.000000 17.853514 2.372943 -1.309209 74.536937 12.433968 15.089070 1.446121 61.042070 -0.001254 -1.686832 5.825145 -0.091686 0.049836 -0.331941 -0.000000 0.000000 0.000000 0.000000 0.000000 0.000000 0.000000 
-8.579406 16.973463 -0.821297 35.240504 84.928210 41.893144 -3.668028 1.730545 -4.208877 -2.007073 1.812023 -3.797455 -7.531141 1.818549 0.277157 11.190698 -7.119320 -8.161100 -3.780004 -0.292662 -0.159572 0.000000 0.000000 0.000000 -1.528829 22.881452 0.264095 -59.360689 16.852828 -7.273562 -0.685845 -75.696371 -0.000792 12.750976 -3.815167 -0.441836 -0.222483 0.089960 0.000000 0.000000 0.000000 0.000000 0.000000 0.000000 0.000000 18.158633 2.120264 -1.229285 74.460790 11.778133 14.462553 1.506071 59.705488 -0.001179 -1.772202 5.788350 -0.095726 0.052970 -0.320245 -0.000000 0.000000 0.000000 0.000000 0.000000 0.000000 0.000000 
-8.372459 16.972634 -0.821554 38.477255 84.861644 45.019269 -3.760706 1.583706 -4.107684 -2.010682 1.677711 -3.768222 -7.513301 1.684313 0.289453 11.165513 -7.239040 -8.197525 -3.833319 -0.296188 -0.172274 0.000000 0.000000 0.000000 -1.774742 22.631856 0.179733 -59.568372 15.918940 -6.768373 -0.673581 -75.934866 -0.002010 12.777090 -3.831905 -0.445205 -0.222028 0.095732 0.000000 0.000000 0.000000 0.000000 0.000000 0.000000 0.000000 18.455534 1.844767 -1.149571 74.335966 11.128729 13.836252 1.567650 58.353024 -0.001265 -1.918373 5.787212 -0.103557 0.056994 -0.308696 -0.000000 0.000000 0.000000 0.000000 0.000000 0.000000 0.000000 
-8.166958 16.975334 -0.824105 40.551944 84.752313 47.053498 -3.778815 1.452043 -4.075674 -1.998353 1.550745 -3.750547 -7.496174 1.556718 0.308919 11.131607 -7.370773 -8.232789 -3.885951 -0.299837 -0.183562 0.000000 0.000000 0.000000 -2.061202 22.381207 0.088094 -59.800404 14.956709 -6.235115 -0.663590 -76.130835 -0.003199 12.799062 -3.849505 -0.448670 -0.221615 0.101444 0.000000 0.000000 0.000000 0.000000 0.000000 0.000000 0.000000 18.734984 1.553029 -1.071144 74.171655 10.468916 13.198792 1.630302 56.997386 -0.001442 -2.112146 5.812398 -0.114383 0.061613 -0.297232 0.000000 0.000000 0.000000 0.000000 0.000000 0.000000 0.000000 
-7.962582 16.981648 -0.828237 41.670586 84.608523 48.195167 -3.743426 1.330227 -4.110822 -1.974178 1.427759 -3.742575 -7.478801 1.432696 0.340706 11.095248 -7.524824 -8.270977 -3.935572 -0.303368 -0.194677 0.000000 0.000000 0.000000 -2.363622 22.144815 -0.009167 -60.063840 13.951556 -5.664844 -0.656919 -76.266443 -0.004401 12.812362 -3.867140 -0.451732 -0.221274 0.107316 0.000000 0.000000 0.000000 0.000000 0.000000 0.000000 0.000000 18.997114 1.233540 -0.997027 73.979564 9.807740 12.557464 1.693759 55.644442 -0.001664 -2.345577 5.855634 -0.127806 0.066670 -0.285822 0.000000 0.000000 0.000000 0.000000 0.000000 0.000000 0.000000 
